<svg xmlns="http://www.w3.org/2000/svg" width="293" height="97" fill="none" viewBox="0 0 293 97"><rect width="293" height="96" y=".5" fill="#212025" rx="19"/><path fill="#fff" d="M55.7627 29.6396C57.103 28.0137 58.0479 25.7944 58.0479 23.5532C58.0479 23.2456 58.0259 22.938 57.9819 22.6963C55.7847 22.7842 53.1479 24.1465 51.5879 25.9922C50.3354 27.3984 49.1929 29.6396 49.1929 31.8809C49.1929 32.2324 49.2588 32.562 49.2808 32.6719C49.4126 32.6938 49.6323 32.7378 49.874 32.7378C51.8296 32.7378 54.2905 31.4194 55.7627 29.6396ZM57.3008 33.1992C54.0269 33.1992 51.3462 35.1987 49.6323 35.1987C47.8086 35.1987 45.4355 33.3311 42.5791 33.3311C37.1519 33.3311 31.6587 37.8135 31.6587 46.251C31.6587 51.5244 33.6802 57.0835 36.207 60.665C38.3604 63.6973 40.25 66.1802 42.9746 66.1802C45.6553 66.1802 46.8418 64.4004 50.1816 64.4004C53.5654 64.4004 54.3345 66.1362 57.3008 66.1362C60.2451 66.1362 62.2007 63.4336 64.0684 60.7749C66.1338 57.7207 67.0127 54.7544 67.0347 54.6006C66.8589 54.5566 61.2339 52.2495 61.2339 45.8115C61.2339 40.2305 65.6504 37.7256 65.9141 37.5278C62.9917 33.3311 58.5312 33.1992 57.3008 33.1992ZM78.7681 61.5H82.9209L86.1289 52.4253H98.895L102.103 61.5H106.256L94.4785 29.7935H90.5674L78.7681 61.5ZM92.479 34.5396H92.5669L97.7085 49.0635H87.3374L92.479 34.5396ZM109.31 69.1904H113.133V57.6768H113.221C114.649 60.3135 117.308 61.9395 120.538 61.9395C126.273 61.9395 130.184 57.3032 130.184 50.0962V50.0742C130.184 42.8672 126.317 38.209 120.472 38.209C117.198 38.209 114.649 39.8569 113.221 42.5156H113.133V38.6484H109.31V69.1904ZM119.725 58.5557C115.88 58.5557 113.111 55.1938 113.111 50.0962V50.0742C113.111 44.9546 115.858 41.5928 119.725 41.5928C123.768 41.5928 126.273 44.8228 126.273 50.0742V50.0962C126.273 55.3037 123.768 58.5557 119.725 58.5557ZM134.051 69.1904H137.875V57.6768H137.962C139.391 60.3135 142.049 61.9395 145.279 61.9395C151.014 61.9395 154.925 57.3032 154.925 50.0962V50.0742C154.925 42.8672 151.058 38.209 145.213 38.209C141.939 38.209 139.391 39.8569 137.962 42.5156H137.875V38.6484H134.051V69.1904ZM144.466 58.5557C140.621 58.5557 137.853 55.1938 137.853 50.0962V50.0742C137.853 44.9546 140.599 41.5928 144.466 41.5928C148.509 41.5928 151.014 44.8228 151.014 50.0742V50.0962C151.014 55.3037 148.509 58.5557 144.466 58.5557ZM178.985 62.0273C186.236 62.0273 190.697 58.4678 190.697 52.8428V52.8208C190.697 47.9868 187.972 45.3501 181.468 43.9219L177.953 43.1528C173.822 42.252 171.91 40.626 171.91 38.0332V38.0112C171.91 34.957 174.679 32.9355 178.919 32.9136C182.94 32.9136 185.643 34.8252 186.126 38.0552L186.17 38.3628H190.125L190.104 38.0332C189.752 32.8477 185.226 29.2661 179.029 29.2661C172.503 29.2661 167.889 32.9136 167.867 38.1211V38.1431C167.867 42.7793 170.768 45.5698 176.964 46.9321L180.479 47.7012C184.83 48.668 186.654 50.228 186.654 53.0186V53.0405C186.654 56.3145 183.775 58.3799 179.205 58.3799C174.613 58.3799 171.537 56.4243 171.075 53.2383L171.031 52.9307H167.076L167.098 53.2383C167.494 58.6655 172.13 62.0273 178.985 62.0273ZM202.167 61.9395C202.914 61.9395 203.727 61.8516 204.21 61.7856V58.6875C203.88 58.7095 203.441 58.7754 202.979 58.7754C200.936 58.7754 199.859 58.0942 199.859 55.6553V41.8125H204.21V38.6484H199.859V32.4741H195.904V38.6484H192.564V41.8125H195.904V55.6772C195.904 60.0498 197.97 61.9395 202.167 61.9395ZM217.13 61.9395C223.436 61.9395 227.699 57.3691 227.699 50.0742V50.0303C227.699 42.7354 223.414 38.209 217.108 38.209C210.802 38.209 206.539 42.7573 206.539 50.0303V50.0742C206.539 57.3472 210.78 61.9395 217.13 61.9395ZM217.152 58.5557C213.109 58.5557 210.45 55.4575 210.45 50.0742V50.0303C210.45 44.6909 213.131 41.5928 217.108 41.5928C221.151 41.5928 223.788 44.6689 223.788 50.0303V50.0742C223.788 55.4355 221.173 58.5557 217.152 58.5557ZM231.566 61.5H235.389V47.3936C235.389 43.9219 237.323 41.8564 240.289 41.8564C241.212 41.8564 242.025 41.9663 242.333 42.0762V38.3628C242.025 38.3188 241.454 38.209 240.794 38.209C238.224 38.209 236.246 39.8789 235.477 42.5156H235.389V38.6484H231.566V61.5ZM253.758 61.9395C258.746 61.9395 262.481 58.9512 263.229 55.1719L263.272 54.9521H259.515L259.449 55.1499C258.79 57.1055 256.747 58.5557 253.846 58.5557C249.781 58.5557 247.188 55.8091 247.101 51.1069H263.558V49.7007C263.558 42.8452 259.757 38.209 253.517 38.209C247.276 38.209 243.233 43.0649 243.233 50.1401V50.1621C243.233 57.3472 247.188 61.9395 253.758 61.9395ZM253.495 41.5928C256.834 41.5928 259.295 43.6802 259.669 48.1187H247.167C247.584 43.856 250.177 41.5928 253.495 41.5928Z"/></svg>