<svg width="38" height="24" viewBox="0 0 38 24" fill="none" xmlns="http://www.w3.org/2000/svg">
<path d="M0.933406 6.25C0.311135 5.57353 0 4.8125 0 3.90349C0 2.02206 1.47271 0.499998 3.29803 0.499998C4.2107 0.499998 5.06114 0.901653 5.74563 1.59926L19.0207 15.5303L32.2751 1.59926C32.9596 0.880512 33.81 0.499998 34.702 0.499998C36.5273 0.499998 38 2.02206 38 3.90349C38 4.83364 37.6889 5.59467 37.0666 6.25L21.7172 22.2316C20.9083 23.0772 20.0371 23.4789 19 23.5C17.9836 23.5 17.1332 23.0983 16.2828 22.2316L0.933406 6.25Z" fill="black"/>
</svg>
