<svg xmlns="http://www.w3.org/2000/svg" width="109" height="146" fill="none" viewBox="0 0 109 146"><rect width="4.573" height="113.573" x="104.427" y="9.647" fill="#000"/><rect width="4.573" height="113.573" fill="#000" transform="matrix(-1 0 0 1 4.57349 9.64685)"/><rect width="4.573" height="22.105" x="99.853" y="123.22" fill="#000"/><rect width="4.573" height="22.105" fill="#000" transform="matrix(-1 0 0 1 9.14697 123.22)"/><rect width="4.573" height="26.678" x="51.832" y="30.989" fill="#000"/><rect width="4.573" height="9.147" x="65.552" y="30.989" fill="#000"/><rect width="4.573" height="9.147" x="34.301" y="30.989" fill="#000"/><rect width="4.573" height="4.573" fill="#000" transform="matrix(-1 0 0 1 9.14697 5.07343)"/><rect width="4.573" height="4.573" fill="#000" transform="matrix(-1 0 0 1 104.427 5.07343)"/><rect width="4.573" height="4.573" fill="#000" transform="matrix(-1 0 0 1 65.5525 62.2413)"/><rect width="4.573" height="4.573" fill="#000" transform="matrix(-1 0 0 1 52.5945 53.0944)"/><rect width="9.147" height="4.573" fill="#000" transform="matrix(-1 0 0 1 56.4055 53.0944)"/><rect width="17.532" height="4.573" fill="#000" transform="matrix(-1 0 0 1 60.979 66.8147)"/><rect width="4.573" height="4.573" fill="#000" transform="matrix(-1 0 0 1 43.4475 62.2413)"/><rect width="90.706" height="4.573" fill="#000" transform="matrix(-1 0 0 1 99.853 0.5)"/><rect width="90.706" height="4.573" fill="#000" transform="matrix(-1 0 0 1 99.853 123.22)"/><rect width="90.706" height="4.573" fill="#000" transform="matrix(-1 0 0 1 99.853 140.752)"/><rect width="83.084" height="4.573" fill="#000" transform="matrix(-1 0 0 1 96.042 79.7727)"/><rect width="73.937" height="4.573" fill="#000" transform="matrix(-1 0 0 1 91.4685 13.4581)"/><rect width="25.916" height="4.573" fill="#000" transform="matrix(-1 0 0 1 91.4685 101.115)"/><rect width="9.147" height="4.573" fill="#000" transform="matrix(-1 0 0 1 21.3428 105.689)"/><rect width="4.573" height="61.741" x="91.469" y="18.032" fill="#000"/><rect width="4.573" height="61.741" fill="#000" transform="matrix(-1 0 0 1 17.5315 18.0315)"/></svg>