<svg width="109" height="146" viewBox="0 0 109 146" fill="none" xmlns="http://www.w3.org/2000/svg">
<rect x="104.427" y="9.64685" width="4.57343" height="113.573" fill="black"/>
<rect width="4.57343" height="113.573" transform="matrix(-1 0 0 1 4.57349 9.64685)" fill="black"/>
<rect x="99.853" y="123.22" width="4.57343" height="22.1049" fill="black"/>
<rect width="4.57343" height="22.1049" transform="matrix(-1 0 0 1 9.14697 123.22)" fill="black"/>
<rect x="51.8323" y="30.9895" width="4.57343" height="26.6783" fill="black"/>
<rect x="65.5525" y="30.9895" width="4.57343" height="9.14685" fill="black"/>
<rect x="34.3008" y="30.9895" width="4.57343" height="9.14685" fill="black"/>
<rect width="4.57343" height="4.57343" transform="matrix(-1 0 0 1 9.14697 5.07343)" fill="black"/>
<rect width="4.57343" height="4.57343" transform="matrix(-1 0 0 1 104.427 5.07343)" fill="black"/>
<rect width="4.57343" height="4.57343" transform="matrix(-1 0 0 1 65.5525 62.2413)" fill="black"/>
<rect width="4.57343" height="4.57343" transform="matrix(-1 0 0 1 52.5945 53.0944)" fill="black"/>
<rect width="9.14685" height="4.57343" transform="matrix(-1 0 0 1 56.4055 53.0944)" fill="black"/>
<rect width="17.5315" height="4.57343" transform="matrix(-1 0 0 1 60.979 66.8147)" fill="black"/>
<rect width="4.57343" height="4.57343" transform="matrix(-1 0 0 1 43.4475 62.2413)" fill="black"/>
<rect width="90.7063" height="4.57343" transform="matrix(-1 0 0 1 99.853 0.5)" fill="black"/>
<rect width="90.7063" height="4.57343" transform="matrix(-1 0 0 1 99.853 123.22)" fill="black"/>
<rect width="90.7063" height="4.57343" transform="matrix(-1 0 0 1 99.853 140.752)" fill="black"/>
<rect width="83.0839" height="4.57343" transform="matrix(-1 0 0 1 96.042 79.7727)" fill="black"/>
<rect width="73.9371" height="4.57343" transform="matrix(-1 0 0 1 91.4685 13.4581)" fill="black"/>
<rect width="25.9161" height="4.57343" transform="matrix(-1 0 0 1 91.4685 101.115)" fill="black"/>
<rect width="9.14685" height="4.57343" transform="matrix(-1 0 0 1 21.3428 105.689)" fill="black"/>
<rect x="91.4685" y="18.0315" width="4.57343" height="61.7413" fill="black"/>
<rect width="4.57343" height="61.7413" transform="matrix(-1 0 0 1 17.5315 18.0315)" fill="black"/>
</svg>
