<svg xmlns="http://www.w3.org/2000/svg" width="54" height="43" fill="none" viewBox="0 0 54 43"><path fill="#000" d="M8.13496 42.3346H45.9175C50.5994 42.3346 53.3617 39.5957 53.3617 34.4691V8.57841C53.3617 3.45178 50.5994 0.712891 45.4259 0.712891H7.61996C2.9381 0.712891 0.199219 3.45178 0.199219 8.57841V34.4691C0.199219 39.6191 2.96151 42.3346 8.13496 42.3346ZM24.2405 22.109L7.61996 5.67566C7.80723 5.65225 8.01792 5.65225 8.2286 5.65225H45.3089C45.543 5.65225 45.7771 5.65225 45.9878 5.69907L29.3672 22.109C28.4074 23.0453 27.6349 23.4433 26.7922 23.4433C25.9728 23.4433 25.2003 23.0219 24.2405 22.109ZM5.04494 9.28069L17.3348 21.3833L5.04494 33.5561V9.28069ZM36.2729 21.3599L48.4926 9.35091V33.5093L36.2729 21.3599ZM8.2286 37.4186C7.94769 37.4186 7.69019 37.3952 7.43268 37.3484L20.4482 24.4499L21.5719 25.5501C23.3042 27.259 24.9896 27.9847 26.7922 27.9847C28.6181 27.9847 30.3035 27.259 32.0124 25.5501L33.1361 24.4499L46.1516 37.3484C45.8941 37.3952 45.6132 37.4186 45.3089 37.4186H8.2286Z"/></svg>