<svg xmlns="http://www.w3.org/2000/svg" width="23" height="39" fill="none" viewBox="0 0 23 39"><path fill="#000" d="M5.75 37.5666C5.07353 38.1889 4.3125 38.5 3.40349 38.5C1.52206 38.5 -1.84297e-06 37.0273 -1.76319e-06 35.202C-1.72329e-06 34.2893 0.401654 33.4389 1.09926 32.7544L15.0303 19.4793L1.09926 6.22489C0.380514 5.54039 -4.29465e-07 4.68996 -3.90478e-07 3.79803C-3.1069e-07 1.9727 1.52206 0.499999 3.40349 0.499999C4.33364 0.499999 5.09467 0.811134 5.75 1.43341L21.7316 16.7828C22.5772 17.5917 22.9789 18.4629 23 19.5C23 20.5164 22.5983 21.3668 21.7316 22.2172L5.75 37.5666Z"/></svg>