<svg xmlns="http://www.w3.org/2000/svg" width="52" height="43" fill="none" viewBox="0 0 52 43"><path fill="#000" d="M51.1992 5.43709C49.3164 6.2714 47.2938 6.83512 45.1674 7.08992C47.3614 5.77711 49.0028 3.71091 49.7854 1.27685C47.7241 2.50122 45.4681 3.36305 43.1155 3.82486C41.5334 2.13565 39.4379 1.01602 37.1543 0.639785C34.8707 0.263554 32.5268 0.651775 30.4865 1.74418C28.4461 2.83658 26.8235 4.57204 25.8705 6.68112C24.9176 8.7902 24.6876 11.1549 25.2163 13.4081C21.0395 13.1984 16.9536 12.1128 13.2235 10.2217C9.49353 8.33069 6.20281 5.67647 3.56496 2.43134C2.66301 3.98721 2.14439 5.79111 2.14439 7.71226C2.14338 9.44174 2.56928 11.1447 3.3843 12.6701C4.19931 14.1955 5.37824 15.4962 6.81649 16.4567C5.14851 16.4036 3.51732 15.9529 2.0587 15.1421V15.2774C2.05853 17.703 2.89759 20.0541 4.4335 21.9315C5.96941 23.809 8.10757 25.0972 10.4852 25.5776C8.93784 25.9964 7.31558 26.0581 5.74091 25.758C6.41173 27.8452 7.71843 29.6703 9.47807 30.9779C11.2377 32.2855 13.3622 33.0101 15.5541 33.0503C11.8332 35.9713 7.2379 37.5557 2.50742 37.5488C1.66947 37.549 0.832221 37.5001 0 37.4022C4.8017 40.4895 10.3912 42.128 16.0998 42.1217C35.4241 42.1217 45.9882 26.1166 45.9882 12.2355C45.9882 11.7846 45.9769 11.3291 45.9566 10.8781C48.0115 9.39209 49.7852 7.55193 51.1947 5.44386L51.1992 5.43709Z"/></svg>